<svg viewBox="0 0 512 512" xmlns="http://www.w3.org/2000/svg"><g data-name="1"><path d="M258.44 313a75.51 75.51 0 01-48.29-17.4 160.33 160.33 0 01-57.88-129l.59-16.68a105.64 105.64 0 01211.16 0l.59 16.68a160.33 160.33 0 01-57.88 129 75.51 75.51 0 01-48.29 17.4zm-29.14-40.45a45.69 45.69 0 0058.28 0 131.16 131.16 0 0047.05-104.88L334 151a75.65 75.65 0 00-151.2 0l-.59 16.68a131.16 131.16 0 0047.09 104.87z"/><path d="M379.44 450h-242a15 15 0 01-15-15v-54.08a120.57 120.57 0 0182.34-114.47 15 15 0 119.52 28.44 90.62 90.62 0 00-61.86 86V420h212v-39.08a90.62 90.62 0 00-61.86-86 15 15 0 119.52-28.44 120.57 120.57 0 0182.34 114.47V435a15 15 0 01-15 15z"/></g></svg>