<?xml version="1.0" ?><svg xmlns="http://www.w3.org/2000/svg" width="24" height="24" viewBox="0 0 24 24" fill="none"><path fill-rule="evenodd" clip-rule="evenodd" d="M4 5.5C3.72386 5.5 3.5 5.72386 3.5 6C3.5 6.27614 3.72386 6.5 4 6.5H5.71922C5.94866 6.5 6.14865 6.65615 6.20429 6.87873L6.51695 8.12935L8.46581 14.9504L8.27639 15.3292C7.77772 16.3265 8.50296 17.5 9.61803 17.5H18C18.2761 17.5 18.5 17.2761 18.5 17C18.5 16.7239 18.2761 16.5 18 16.5H9.61803C9.24634 16.5 9.0046 16.1088 9.17082 15.7764L9.30902 15.5H16C16.2761 15.5 16.5 15.2761 16.5 15C16.5 14.7239 16.2761 14.5 16 14.5H9.37715L7.66286 8.5H18.7802C19.0957 8.5 19.3324 8.78866 19.2705 9.09806L19.0097 10.4019C18.9556 10.6727 19.1312 10.9361 19.4019 10.9903C19.6727 11.0444 19.9361 10.8688 19.9903 10.5981L20.2511 9.29417C20.4367 8.36599 19.7268 7.5 18.7802 7.5H7.39039L7.17444 6.6362C7.0075 5.96845 6.40752 5.5 5.71922 5.5H4ZM11 20C11.5523 20 12 19.5523 12 19C12 18.4477 11.5523 18 11 18C10.4477 18 10 18.4477 10 19C10 19.5523 10.4477 20 11 20ZM18 19C18 19.5523 17.5523 20 17 20C16.4477 20 16 19.5523 16 19C16 18.4477 16.4477 18 17 18C17.5523 18 18 18.4477 18 19ZM19.5 12C19.5 11.7239 19.2761 11.5 19 11.5C18.7239 11.5 18.5 11.7239 18.5 12V13.5H17C16.7239 13.5 16.5 13.7239 16.5 14C16.5 14.2761 16.7239 14.5 17 14.5H18.5V16C18.5 16.2761 18.7239 16.5 19 16.5C19.2761 16.5 19.5 16.2761 19.5 16V14.5H21C21.2761 14.5 21.5 14.2761 21.5 14C21.5 13.7239 21.2761 13.5 21 13.5H19.5V12Z" fill="black"/></svg>