<svg xmlns="http://www.w3.org/2000/svg" width="24" height="24" fill="none"><path fill-rule="evenodd" clip-rule="evenodd" d="M4 5.5a.5.5 0 000 1h1.72a.5.5 0 01.484.379l.313 1.25 1.949 6.821-.19.38a1.5 1.5 0 001.342 2.17H18a.5.5 0 000-1H9.618a.5.5 0 01-.447-.724l.138-.276H16a.5.5 0 000-1H9.377l-1.714-6H18.78a.5.5 0 01.49.598l-.26 1.304a.5.5 0 00.98.196l.261-1.304a1.5 1.5 0 00-1.47-1.794H7.39l-.217-.864A1.5 1.5 0 005.72 5.5H4zM11 20a1 1 0 100-2 1 1 0 000 2zm7-1a1 1 0 11-2 0 1 1 0 012 0zm1.5-7a.5.5 0 00-1 0v1.5H17a.5.5 0 000 1h1.5V16a.5.5 0 001 0v-1.5H21a.5.5 0 000-1h-1.5V12z" fill="#000"/></svg>